<?xml version="1.0" encoding="UTF-8"?>
<svg width="21px" height="40px" viewBox="0 0 21 40" version="1.1" xmlns="http://www.w3.org/2000/svg" xmlns:xlink="http://www.w3.org/1999/xlink">
    <!-- Generator: Sketch 62 (91390) - https://sketch.com -->
    <title>Path</title>
    <desc>Created with Sketch.</desc>
    <g id="Page-1" stroke="none" stroke-width="1" fill="none" fill-rule="evenodd">
        <g id="Desktop-HD-Copy" transform="translate(-20.000000, -8519.000000)" fill="#FFFFFF" fill-rule="nonzero">
            <g id="Group-23" transform="translate(0.000000, 7980.000000)">
                <path d="M30.4007059,549.002656 C29.9781955,549.026167 29.5771804,549.196973 29.2670609,549.485514 L11.5821986,565.845841 C11.106309,566.28726 10.9015466,566.949589 11.0450436,567.583335 C11.1885406,568.217082 11.6584962,568.725966 12.2778827,568.918294 C12.8972693,569.110622 13.5719872,568.957177 14.0478767,568.515758 L30.4998999,553.291552 L46.9519254,568.515758 C47.4277965,568.957291 48.102574,569.110821 48.7220314,568.918504 C49.3414888,568.726188 49.8114965,568.217248 49.9549763,567.583431 C50.0984561,566.949614 49.8936056,566.287232 49.4176033,565.845841 L31.7327388,549.485514 C31.37237,549.150297 30.8916628,548.976042 30.4007059,549.002656 Z" id="Path" transform="translate(30.500000, 559.000000) scale(-1, 1) rotate(90.000000) translate(-30.500000, -559.000000) "></path>
            </g>
        </g>
    </g>
</svg>