<?xml version="1.0" encoding="UTF-8"?>
<svg width="233px" height="123px" viewBox="0 0 233 123" version="1.1" xmlns="http://www.w3.org/2000/svg" xmlns:xlink="http://www.w3.org/1999/xlink">
    <!-- Generator: Sketch 59 (86127) - https://sketch.com -->
    <title>Group</title>
    <desc>Created with Sketch.</desc>
    <g id="Page-1" stroke="none" stroke-width="1" fill="none" fill-rule="evenodd">
        <g id="Artboard" transform="translate(-611.000000, -463.000000)" fill-rule="nonzero">
            <g id="Group" transform="translate(611.000000, 463.000000)">
                <path d="M62.1912583,119.875419 C63.604042,119.875419 64.7248504,119.172626 65.3558938,118.032961 L65.3841495,118.032961 L65.3841495,119.704469 L66.9476301,119.704469 L66.9476301,106 L65.308801,106 L65.308801,111.432402 L65.2711268,111.432402 C64.6871762,110.349721 63.5569492,109.656425 62.1535841,109.656425 C59.6859219,109.656425 58,111.669832 58,114.765922 C58,117.862011 59.6953404,119.875419 62.1912583,119.875419 Z M62.5020707,111.109497 C64.1879926,111.109497 65.3182196,112.56257 65.3182196,114.765922 C65.3182196,116.978771 64.1879926,118.422346 62.5020707,118.422346 C60.7690561,118.422346 59.6765033,117.007263 59.6765033,114.765922 C59.6765033,112.534078 60.7690561,111.109497 62.5020707,111.109497 Z M76.0979365,116.874302 C75.8247984,117.805028 74.9111982,118.441341 73.6679486,118.441341 C72.0045266,118.441341 70.9291831,117.331604 70.8148345,115.616171 L70.804707,115.212291 L77.8309512,115.212291 L77.8309512,114.585475 C77.8309512,111.593855 76.2015407,109.656425 73.5549259,109.656425 C70.8517997,109.656425 69.1187851,111.736313 69.1187851,114.803911 C69.1187851,117.909497 70.8235441,119.875419 73.6302744,119.875419 C75.768287,119.875419 77.4259532,118.602793 77.70851,116.874302 L76.0979365,116.874302 Z M73.5266702,111.090503 C75.0713137,111.090503 76.0979365,112.268156 76.1356108,113.92067 L70.8141255,113.92067 C70.9177296,112.277654 71.9914453,111.090503 73.5266702,111.090503 Z M87.9513691,109.827374 L86.2466101,109.827374 L83.5340654,117.947486 L83.4963912,117.947486 L80.7932651,109.827374 L79.069669,109.827374 L82.6769767,119.704469 L84.35348,119.704469 L87.9513691,109.827374 Z M95.8866816,116.874302 C95.6135434,117.805028 94.6999433,118.441341 93.4566936,118.441341 C91.7932717,118.441341 90.7179281,117.331604 90.6035796,115.616171 L90.593452,115.212291 L97.6196963,115.212291 L97.6196963,114.585475 C97.6196963,111.593855 95.9902858,109.656425 93.343671,109.656425 C90.6405448,109.656425 88.9075301,111.736313 88.9075301,114.803911 C88.9075301,117.909497 90.6122891,119.875419 93.4190194,119.875419 C95.5570321,119.875419 97.2146983,118.602793 97.497255,116.874302 L95.8866816,116.874302 Z M93.3154153,111.090503 C94.8600588,111.090503 95.8866816,112.268156 95.9243558,113.92067 L90.6028706,113.92067 C90.7064747,112.277654 91.7801903,111.090503 93.3154153,111.090503 Z M99.7908513,119.704469 L101.42968,119.704469 L101.42968,106 L99.7908513,106 L99.7908513,119.704469 Z M108.14058,119.875419 C110.843706,119.875419 112.670907,117.909497 112.670907,114.765922 C112.670907,111.612849 110.843706,109.656425 108.14058,109.656425 C105.428036,109.656425 103.600835,111.612849 103.600835,114.765922 C103.600835,117.909497 105.428036,119.875419 108.14058,119.875419 Z M108.14058,118.422346 C106.407566,118.422346 105.26792,117.092737 105.26792,114.765922 C105.26792,112.439106 106.407566,111.109497 108.14058,111.109497 C109.873595,111.109497 111.003822,112.439106 111.003822,114.765922 C111.003822,117.092737 109.873595,118.422346 108.14058,118.422346 Z M119.513666,109.656425 C118.091464,109.656425 116.951819,110.387709 116.349031,111.498883 L116.311357,111.498883 L116.311357,109.827374 L114.757295,109.827374 L114.757295,123 L116.396124,123 L116.396124,118.099441 L116.433798,118.099441 C117.017749,119.182123 118.147976,119.875419 119.551341,119.875419 C122.019003,119.875419 123.704925,117.862011 123.704925,114.765922 C123.704925,111.669832 122.009584,109.656425 119.513666,109.656425 Z M119.193435,118.422346 C117.516932,118.422346 116.386705,116.969274 116.386705,114.765922 C116.386705,112.572067 117.516932,111.109497 119.193435,111.109497 C120.935869,111.109497 122.028421,112.534078 122.028421,114.765922 C122.028421,117.007263 120.935869,118.422346 119.193435,118.422346 Z M125.791313,119.704469 L127.430142,119.704469 L127.430142,113.512291 C127.430142,112.144693 128.371998,111.118994 129.671759,111.118994 C130.886753,111.118994 131.677911,111.897765 131.677911,113.084916 L131.677911,119.704469 L133.316741,119.704469 L133.316741,113.426816 C133.316741,112.087709 134.230341,111.118994 135.530102,111.118994 C136.820444,111.118994 137.56451,111.91676 137.56451,113.265363 L137.56451,119.704469 L139.203339,119.704469 L139.203339,112.885475 C139.203339,110.92905 137.950671,109.656425 136.010448,109.656425 C134.635339,109.656425 133.486275,110.359218 132.939998,111.536872 L132.902324,111.536872 C132.478489,110.340223 131.48954,109.656425 130.152105,109.656425 C128.833507,109.656425 127.83514,110.359218 127.37363,111.403911 L127.335956,111.403911 L127.335956,109.827374 L125.791313,109.827374 L125.791313,119.704469 Z M148.221786,116.874302 C147.948648,117.805028 147.035048,118.441341 145.791798,118.441341 C144.128376,118.441341 143.053032,117.331604 142.938684,115.616171 L142.928556,115.212291 L149.954801,115.212291 L149.954801,114.585475 C149.954801,111.593855 148.32539,109.656425 145.678775,109.656425 C142.975649,109.656425 141.242634,111.736313 141.242634,114.803911 C141.242634,117.909497 142.947393,119.875419 145.754124,119.875419 C147.892136,119.875419 149.549803,118.602793 149.832359,116.874302 L148.221786,116.874302 Z M145.65052,111.090503 C147.195163,111.090503 148.221786,112.268156 148.25946,113.92067 L142.937975,113.92067 C143.041579,112.277654 144.115295,111.090503 145.65052,111.090503 Z M152.041189,119.704469 L153.680018,119.704469 L153.680018,113.892179 C153.680018,112.22067 154.687803,111.118994 156.232447,111.118994 C157.739416,111.118994 158.483482,111.992737 158.483482,113.588268 L158.483482,119.704469 L160.122311,119.704469 L160.122311,113.293855 C160.122311,111.052514 158.879062,109.656425 156.73163,109.656425 C155.215243,109.656425 154.169783,110.340223 153.623506,111.403911 L153.585832,111.403911 L153.585832,109.827374 L152.041189,109.827374 L152.041189,119.704469 Z M163.169392,107.443575 L163.169392,109.827374 L161.709516,109.827374 L161.709516,111.185475 L163.169392,111.185475 L163.169392,117.140223 C163.169392,119.039665 163.866365,119.780447 165.66531,119.780447 C166.051471,119.780447 166.503562,119.751955 166.701351,119.704469 L166.701351,118.317877 L166.468073,118.342798 C166.317074,118.355106 166.136238,118.365363 166.023215,118.365363 C165.184964,118.365363 164.808221,117.956983 164.808221,117.054749 L164.808221,111.185475 L166.71077,111.185475 L166.71077,109.827374 L164.808221,109.827374 L164.808221,107.443575 L163.169392,107.443575 Z M173.115744,112.553073 C173.115744,113.977654 174.010507,114.841899 175.856544,115.288268 L177.410607,115.668156 C178.531415,115.943575 178.917576,116.351955 178.917576,117.064246 C178.917576,117.956983 178.098161,118.526816 176.770145,118.526816 C175.442128,118.526816 174.688643,117.985475 174.490854,116.855307 L172.852024,116.855307 C173.040396,118.707263 174.472016,119.875419 176.770145,119.875419 C178.95525,119.875419 180.565823,118.659777 180.565823,116.940782 C180.565823,115.525698 179.850013,114.746927 177.872116,114.26257 L176.318054,113.882682 C175.225501,113.61676 174.726318,113.151397 174.726318,112.467598 C174.726318,111.603352 175.517476,111.005028 176.713633,111.005028 C177.919209,111.005028 178.672693,111.641341 178.795135,112.676536 L180.358615,112.676536 C180.292685,110.92905 178.861064,109.656425 176.713633,109.656425 C174.594458,109.656425 173.115744,110.86257 173.115744,112.553073 Z M183.226743,107.443575 L183.226743,109.827374 L181.766867,109.827374 L181.766867,111.185475 L183.226743,111.185475 L183.226743,117.140223 C183.226743,119.039665 183.923717,119.780447 185.722661,119.780447 C186.108822,119.780447 186.560913,119.751955 186.758703,119.704469 L186.758703,118.317877 L186.525424,118.342798 C186.374426,118.355106 186.193589,118.365363 186.080567,118.365363 C185.242315,118.365363 184.865573,117.956983 184.865573,117.054749 L184.865573,111.185475 L186.768121,111.185475 L186.768121,109.827374 L184.865573,109.827374 L184.865573,107.443575 L183.226743,107.443575 Z M196.992143,109.827374 L195.353314,109.827374 L195.353314,115.630168 C195.353314,117.311173 194.392621,118.412849 192.800885,118.412849 C191.284497,118.412849 190.540431,117.548603 190.540431,115.943575 L190.540431,109.827374 L188.901602,109.827374 L188.901602,116.237989 C188.901602,118.47933 190.15427,119.875419 192.292283,119.875419 C193.799252,119.875419 194.816456,119.239106 195.400407,118.099441 L195.438081,118.099441 L195.438081,119.704469 L196.992143,119.704469 L196.992143,109.827374 Z M203.260371,119.875419 C204.673155,119.875419 205.793963,119.172626 206.425007,118.032961 L206.453262,118.032961 L206.453262,119.704469 L208.016743,119.704469 L208.016743,106 L206.377914,106 L206.377914,111.432402 L206.34024,111.432402 C205.756289,110.349721 204.626062,109.656425 203.222697,109.656425 C200.755035,109.656425 199.069113,111.669832 199.069113,114.765922 C199.069113,117.862011 200.764453,119.875419 203.260371,119.875419 Z M203.571183,111.109497 C205.257105,111.109497 206.387332,112.56257 206.387332,114.765922 C206.387332,116.978771 205.257105,118.422346 203.571183,118.422346 C201.838169,118.422346 200.745616,117.007263 200.745616,114.765922 C200.745616,112.534078 201.838169,111.109497 203.571183,111.109497 Z M211.572426,108.070391 C212.146958,108.070391 212.599049,107.605028 212.599049,107.035196 C212.599049,106.455866 212.146958,106 211.572426,106 C211.007312,106 210.545803,106.455866 210.545803,107.035196 C210.545803,107.605028 211.007312,108.070391 211.572426,108.070391 Z M210.753011,119.704469 L212.39184,119.704469 L212.39184,109.827374 L210.753011,109.827374 L210.753011,119.704469 Z M219.10274,119.875419 C221.805866,119.875419 223.633067,117.909497 223.633067,114.765922 C223.633067,111.612849 221.805866,109.656425 219.10274,109.656425 C216.390196,109.656425 214.562995,111.612849 214.562995,114.765922 C214.562995,117.909497 216.390196,119.875419 219.10274,119.875419 Z M219.10274,118.422346 C217.369726,118.422346 216.23008,117.092737 216.23008,114.765922 C216.23008,112.439106 217.369726,111.109497 219.10274,111.109497 C220.835755,111.109497 221.965982,112.439106 221.965982,114.765922 C221.965982,117.092737 220.835755,118.422346 219.10274,118.422346 Z M225.549921,112.553073 C225.549921,110.86257 227.028634,109.656425 229.14781,109.656425 C231.295241,109.656425 232.726862,110.92905 232.792792,112.676536 L231.229311,112.676536 C231.10687,111.641341 230.353385,111.005028 229.14781,111.005028 C227.951653,111.005028 227.160494,111.603352 227.160494,112.467598 C227.160494,113.151397 227.659678,113.61676 228.75223,113.882682 L230.306292,114.26257 C232.28419,114.746927 233,115.525698 233,116.940782 C233,118.659777 231.389427,119.875419 229.204321,119.875419 C226.906193,119.875419 225.474572,118.707263 225.286201,116.855307 L226.92503,116.855307 C227.12282,117.985475 227.876304,118.526816 229.204321,118.526816 C230.532338,118.526816 231.351752,117.956983 231.351752,117.064246 C231.351752,116.351955 230.965591,115.943575 229.844783,115.668156 L228.290721,115.288268 C226.444684,114.841899 225.549921,113.977654 225.549921,112.553073 Z" id="developmentstudios" fill="#FFFFFF"></path>
                <path d="M0,55.8192149 C4.33295755,55.8192149 7.51198198,54.6709826 9.53716865,52.3744835 C11.5623553,50.0779844 12.5749335,47.3584868 12.5749335,44.2159091 L12.5749335,26.4483471 C12.5749335,22.6611381 12.9988034,19.2970188 13.846556,16.3558884 C14.6943085,13.414758 16.2014016,10.957138 18.3678804,8.98295455 C20.5343591,7.00877112 23.5485453,5.51808355 27.4105292,4.51084711 C30.7897651,3.62951522 34.9982994,3.13377182 40.0362314,3.02360678 L48,3 L43.2351646,14.6033058 C40.5035174,14.6033058 38.1957812,14.7644612 36.3118866,15.0867769 C34.427992,15.4090925 32.9208989,15.9932809 31.7905622,16.8393595 C30.6602254,17.6854381 29.8360339,18.813526 29.3179629,20.223657 C28.7998919,21.633788 28.5408603,23.426642 28.5408603,25.6022727 L28.5408603,42.8863636 C28.5408603,47.7210986 27.8108621,51.568684 26.3508438,54.4292355 C24.8908255,57.289787 22.4182509,59.6466849 18.9330459,61.5 C22.4182509,63.3533151 24.8908255,65.7303574 26.3508438,68.6311983 C27.8108621,71.5320393 28.5408603,75.3594804 28.5408603,80.1136364 L28.5408603,97.518595 C28.5408603,99.6942149 28.7998919,101.466935 29.3179629,102.836777 C29.8360339,104.206618 30.6602254,105.314562 31.7905622,106.16064 C32.9208989,107.006719 34.427992,107.590907 36.3118866,107.913223 C38.1957812,108.235539 40.5035174,108.396694 43.2351646,108.396694 L43.2351646,120 C36.9241177,120 31.7905622,119.516534 27.8344033,118.549587 C23.8782247,117.58264 20.7698453,116.112097 18.5091718,114.137913 C16.2484983,112.16373 14.6943085,109.726254 13.846556,106.825413 C12.9988034,103.924572 12.5749335,100.540309 12.5749335,96.6725207 L12.5749335,78.7840909 C12.5749335,75.7220921 11.5623553,73.0428834 9.53716865,70.7463843 C7.51198198,68.4498852 4.33295755,67.3016529 0,67.3016529 L0,55.8192149 Z" id="Path" fill="#FFFFFF"></path>
                <path d="M79.2611856,26.4705882 C78.9921843,25.7647024 78.7337347,25.0666666 78.4858332,24.3764717 L78.1218918,23.3470588 C77.7658607,22.3235243 77.3979674,21.2823582 77.018201,20.2235294 L65.8388807,20.2235294 L63.595896,26.4705882 L60,26.4705882 L61.3796138,22.7338228 C61.6763041,21.9357856 61.9664013,21.1593171 62.2499063,20.4044147 L62.6702198,19.2882353 C63.500959,17.0882243 64.3138845,15.0000099 65.1090206,13.0235294 C65.9041567,11.0470489 66.6933471,9.15883253 67.4766155,7.35882353 C68.2598839,5.55881453 69.0787431,3.77647941 69.9332177,2.01176471 L73.1018786,2.01176471 C73.9563532,3.77647941 74.7752124,5.55881453 75.5584808,7.35882353 C76.3417492,9.15883253 77.1309396,11.0470489 77.9260757,13.0235294 C78.5621846,14.6047138 79.2096786,16.2574079 79.8685704,17.9816438 L81.2153917,21.5529432 C81.7955866,23.1058815 82.4021521,24.7450894 83.0350963,26.4705882 L79.2611856,26.4705882 Z M66.8357627,17.4 L76.0213189,17.4 L74.8864754,14.3779409 C74.5096787,13.3867669 74.1343654,12.4117695 73.7605328,11.4529412 C73.0128675,9.53528453 72.2355446,7.69412647 71.4285408,5.92941176 C70.5978016,7.69412647 69.8086112,9.53528453 69.0609459,11.4529412 C68.3132806,13.3705978 67.5715603,15.3529309 66.8357627,17.4 Z M98.9818185,17.3294118 C98.9818185,15.1882246 98.4477799,13.5411822 97.3796866,12.3882353 C96.3115934,11.2352884 94.8874904,10.6588235 93.1073349,10.6588235 C92.1104479,10.6588235 91.333125,10.6941173 90.775343,10.7647059 C90.2175609,10.8352945 89.7725287,10.9176466 89.4402331,11.0117647 L89.4402331,22.5882353 C89.843735,22.9176487 90.4252437,23.2352926 91.1847767,23.5411765 C91.9443097,23.8470604 92.7750364,24 93.6769818,24 C94.6263981,24 95.4393235,23.8294135 96.1157826,23.4882353 C96.7922417,23.1470571 97.3440816,22.6764736 97.7713189,22.0764706 C98.1985562,21.4764676 98.5071118,20.7705923 98.6969951,19.9588235 C98.8868783,19.1470548 98.9818185,18.2705929 98.9818185,17.3294118 Z M102.435303,17.3294118 C102.435303,18.717654 102.251356,19.9999941 101.883457,21.1764706 C101.515559,22.3529471 100.975586,23.3647016 100.263524,24.2117647 C99.5514619,25.0588278 98.6791988,25.7176447 97.6467086,26.1882353 C96.6142185,26.6588259 95.4333997,26.8941176 94.104217,26.8941176 C93.0361237,26.8941176 92.0926555,26.7529426 91.273784,26.4705882 C90.4549125,26.1882339 89.843735,25.9176484 89.4402331,25.6588235 L89.4402331,33 L86.1291605,33 L86.1291605,8.68235294 C86.9124289,8.49411671 87.8914997,8.28823641 89.0664023,8.06470588 C90.2413049,7.84117535 91.6001365,7.72941176 93.1429379,7.72941176 C94.5670622,7.72941176 95.8487549,7.95293894 96.9880544,8.4 C98.1273539,8.84706106 99.1004909,9.48234882 99.9074947,10.3058824 C100.714499,11.1294159 101.337544,12.1352882 101.776649,13.3235294 C102.215754,14.5117706 102.435303,15.8470514 102.435303,17.3294118 Z M119.912951,17.3294118 C119.912951,15.1882246 119.378913,13.5411822 118.310819,12.3882353 C117.242726,11.2352884 115.818623,10.6588235 114.038468,10.6588235 C113.04158,10.6588235 112.264258,10.6941173 111.706476,10.7647059 C111.148694,10.8352945 110.703661,10.9176466 110.371366,11.0117647 L110.371366,22.5882353 C110.774868,22.9176487 111.356376,23.2352926 112.115909,23.5411765 C112.875442,23.8470604 113.706169,24 114.608114,24 C115.557531,24 116.370456,23.8294135 117.046915,23.4882353 C117.723374,23.1470571 118.275214,22.6764736 118.702451,22.0764706 C119.129689,21.4764676 119.438244,20.7705923 119.628128,19.9588235 C119.818011,19.1470548 119.912951,18.2705929 119.912951,17.3294118 Z M123.366435,17.3294118 C123.366435,18.717654 123.182489,19.9999941 122.81459,21.1764706 C122.446691,22.3529471 121.906719,23.3647016 121.194657,24.2117647 C120.482594,25.0588278 119.610331,25.7176447 118.577841,26.1882353 C117.545351,26.6588259 116.364532,26.8941176 115.03535,26.8941176 C113.967256,26.8941176 113.023788,26.7529426 112.204917,26.4705882 C111.386045,26.1882339 110.774868,25.9176484 110.371366,25.6588235 L110.371366,33 L107.060293,33 L107.060293,8.68235294 C107.843561,8.49411671 108.822632,8.28823641 109.997535,8.06470588 C111.172437,7.84117535 112.531269,7.72941176 114.07407,7.72941176 C115.498195,7.72941176 116.779888,7.95293894 117.919187,8.4 C119.058486,8.84706106 120.031624,9.48234882 120.838627,10.3058824 C121.645631,11.1294159 122.268676,12.1352882 122.707781,13.3235294 C123.146886,14.5117706 123.366435,15.8470514 123.366435,17.3294118 Z M130.412425,0 L130.412425,0.758823529 C130.412425,1.00588359 130.400557,1.24705765 130.376822,1.48235294 C130.28188,2.70588847 130.008927,3.91175876 129.557955,5.1 C129.106982,6.28824124 128.561076,7.41175941 127.92022,8.47058824 L125.356809,7.65882353 C125.855252,6.59999471 126.229079,5.54706406 126.478301,4.5 C126.727523,3.45293594 126.852132,2.47059282 126.852132,1.55294118 C126.852132,1.31764588 126.846198,1.06470724 126.83433,0.794117647 C126.822463,0.523528059 126.804661,0.258824824 126.780926,0 L130.412425,0 Z M139.665796,24.1058824 C141.018714,24.1058824 142.02152,23.9294135 142.674244,23.5764706 C143.326968,23.2235276 143.653324,22.6588235 143.653324,21.8823529 C143.653324,21.0823489 143.332901,20.4470612 142.692045,19.9764706 C142.122396,19.5581678 141.224565,19.0933933 139.998532,18.5821358 L139.523385,18.3882353 C138.811322,18.1058809 138.12894,17.8176485 137.476216,17.5235294 C136.823492,17.2294103 136.259785,16.8823549 135.785077,16.4823529 C135.310369,16.0823509 134.930608,15.6000028 134.645783,15.0352941 C134.360958,14.4705854 134.218548,13.7764747 134.218548,12.9529412 C134.218548,11.3294036 134.823792,10.0411812 136.034297,9.08823529 C137.244803,8.13528935 138.894389,7.65882353 140.983105,7.65882353 C141.505284,7.65882353 142.027455,7.688235 142.549634,7.74705882 C143.071813,7.80588265 143.558381,7.87647018 144.009354,7.95882353 C144.310002,8.01372576 144.586913,8.0712418 144.840089,8.13137243 L145.202052,8.22352941 C145.546215,8.31764753 145.813235,8.39999965 146.003118,8.47058824 L145.397868,11.2941176 C145.041837,11.1058814 144.484063,10.9117657 143.72453,10.7117647 C142.964997,10.5117637 142.051198,10.4117647 140.983105,10.4117647 C140.057424,10.4117647 139.250432,10.5941158 138.562105,10.9588235 C137.873779,11.3235312 137.52962,11.8941138 137.52962,12.6705882 C137.52962,13.0705902 137.606759,13.4235279 137.761039,13.7294118 C137.91532,14.0352956 138.15267,14.3117635 138.473098,14.5588235 C138.793526,14.8058836 139.191088,15.0352931 139.665796,15.2470588 C140.140504,15.4588246 140.710146,15.6823518 141.374737,15.9176471 C142.252947,16.2470605 143.036204,16.5705866 143.72453,16.8882353 C144.412857,17.2058839 145.0003,17.5764685 145.486875,18 C145.973451,18.4235315 146.347278,18.9352911 146.608368,19.5352941 C146.869457,20.1352971 147,20.8705839 147,21.7411765 C147,23.4353026 146.365087,24.7176427 145.095243,25.5882353 C143.825399,26.4588279 142.015601,26.8941176 139.665796,26.8941176 C138.028053,26.8941176 136.746361,26.7588249 135.82068,26.4882353 L134.904459,26.2111209 C134.464986,26.0723344 134.141409,25.958824 133.933724,25.8705882 L134.538974,23.0470588 L136.354724,23.6823529 L136.354724,23.6823529 C137.185463,23.9647073 138.289143,24.1058824 139.665796,24.1058824 Z" id="App’s" fill="#FFFFFF"></path>
                <path d="M61,43.1712707 L70.178963,43.1712707 L70.178963,93.9019337 L61,93.9019337 L61,43.1712707 Z M93.1055566,86.288674 C93.6397846,86.3374772 94.3439837,86.3740791 95.2181751,86.3984807 L96.7662133,86.4259324 C97.3611446,86.4320327 98.0349959,86.4350829 98.7877718,86.4350829 C104.955677,86.4350829 109.557254,84.8612036 112.592641,81.7133978 C115.628027,78.565592 117.145698,74.1611701 117.145698,68.5 C117.145698,62.7412235 115.664451,58.324601 112.701914,55.25 C109.739377,52.175399 105.149941,50.6381215 98.9334696,50.6381215 L97.7333982,50.6433194 C95.6344258,50.6623784 94.0918237,50.7338498 93.1055566,50.8577348 L93.1055566,86.288674 Z M126.761754,68.5 C126.761754,72.8922872 126.081838,76.7110795 124.721985,79.9564917 C123.362132,83.2019039 121.431655,85.9104403 118.930496,88.0821823 C116.429338,90.2539243 113.418279,91.8644054 109.897231,92.913674 C106.376183,93.9629426 102.478805,94.4875691 98.2049805,94.4875691 C96.1652007,94.4875691 93.8583416,94.4021648 91.2843338,94.2313536 C88.710326,94.0605424 86.2577704,93.7067246 83.9265936,93.1698895 L83.9265936,43.9033149 C86.2577704,43.3664798 88.7346087,43.0248626 91.3571827,42.878453 L93.2694707,42.7823719 C95.1271175,42.7000169 96.8208435,42.6588398 98.3506783,42.6588398 C102.575936,42.6588398 106.43689,43.159065 109.933655,44.1595304 C113.430421,45.1599958 116.429338,46.7216745 118.930496,48.8446133 C121.431655,50.9675521 123.362132,53.6516873 124.721985,56.8970994 C126.081838,60.1425116 126.761754,64.0101065 126.761754,68.5 Z M145.973053,68.5 C145.973053,71.2817819 146.313012,73.8073091 146.992938,76.0766575 C147.672865,78.3460058 148.656315,80.2737029 149.943319,81.8598066 C151.230323,83.4459103 152.796559,84.6781724 154.642074,85.5566298 C156.487589,86.4350873 158.575904,86.8743094 160.90708,86.8743094 C163.189691,86.8743094 165.253723,86.4350873 167.099238,85.5566298 C168.944753,84.6781724 170.510989,83.4459103 171.797993,81.8598066 C173.084997,80.2737029 174.068447,78.3460058 174.748374,76.0766575 C175.4283,73.8073091 175.768259,71.2817819 175.768259,68.5 C175.768259,65.7182181 175.4283,63.1926909 174.748374,60.9233425 C174.068447,58.6539942 173.084997,56.7262971 171.797993,55.1401934 C170.510989,53.5540897 168.944753,52.3218276 167.099238,51.4433702 C165.253723,50.5649127 163.189691,50.1256906 160.90708,50.1256906 C158.575904,50.1256906 156.487589,50.5649127 154.642074,51.4433702 C152.796559,52.3218276 151.230323,53.5662903 149.943319,55.1767956 C148.656315,56.7873009 147.672865,58.714998 146.992938,60.9599448 C146.313012,63.2048915 145.973053,65.7182181 145.973053,68.5 Z M185.384315,68.5 C185.384315,72.843484 184.740823,76.674477 183.453819,79.9930939 C182.166815,83.3117109 180.418459,86.0812504 178.208697,88.3017956 C175.998936,90.5223408 173.412825,92.193825 170.450288,93.3162983 C167.487751,94.4387717 164.330996,95 160.979929,95 C157.628863,95 154.459967,94.4387717 151.473146,93.3162983 C148.486326,92.193825 145.888074,90.5223408 143.678313,88.3017956 C141.468551,86.0812504 139.708053,83.3117109 138.396766,79.9930939 C137.085479,76.674477 136.429846,72.843484 136.429846,68.5 C136.429846,64.156516 137.085479,60.3377237 138.396766,57.0435083 C139.708053,53.7492929 141.492834,50.9797534 143.751161,48.7348066 C146.009489,46.4898599 148.619882,44.806175 151.58242,43.6837017 C154.544957,42.5612283 157.677429,42 160.979929,42 C164.28243,42 167.414902,42.5612283 170.377439,43.6837017 C173.339976,44.806175 175.926087,46.4898599 178.135848,48.7348066 C180.34561,50.9797534 182.106108,53.7492929 183.417395,57.0435083 C184.728682,60.3377237 185.384315,64.156516 185.384315,68.5 Z M229,85.9226519 L229,93.9019337 L197.092176,93.9019337 L197.092176,43.1712707 L206.271139,43.1712707 L206.271139,85.9226519 L229,85.9226519 Z" id="IDOL" stroke="#FFFFFF" stroke-width="4" fill="#FFFFFF"></path>
                <path d="M44,33 C47.3137085,33 50,35.6862915 50,39 C50,42.3137085 47.3137085,45 44,45 C40.6862915,45 38,42.3137085 38,39 C38,35.6862915 40.6862915,33 44,33 Z" id="Oval" fill="#FF6000"></path>
                <polygon id="Line" fill="#FFFFFF" points="23 83 23 96 43 96 43 83"></polygon>
            </g>
        </g>
    </g>
</svg>