<svg xmlns="http://www.w3.org/2000/svg" width="417" height="957" viewBox="0 0 417 957"><g><g><path fill="#001435" d="M0 432.034c35.476 0 61.504-9.392 78.086-28.176 16.58-18.784 24.871-41.028 24.871-66.733v-145.33c0-30.977 3.47-58.494 10.412-82.55 6.94-24.058 19.28-44.16 37.018-60.308 17.738-16.147 42.417-28.34 74.037-36.58C252.09 5.15 286.549 1.095 327.797.194L393 0l-39.012 94.91c-22.365 0-41.26 1.317-56.684 3.954-15.425 2.636-27.764 7.414-37.019 14.335-9.254 6.92-16.002 16.148-20.244 27.682-4.242 11.534-6.363 26.198-6.363 43.994V326.25c0 39.546-5.977 71.017-17.93 94.415-11.954 23.398-32.199 42.676-60.734 57.835 28.535 15.16 48.78 34.602 60.734 58.33 11.953 23.727 17.93 55.033 17.93 93.92v142.364c0 17.795 2.121 32.295 6.363 43.5 4.242 11.204 10.99 20.267 20.244 27.187 9.255 6.92 21.594 11.699 37.019 14.335 15.424 2.637 34.319 3.955 56.684 3.955V957c-51.672 0-93.703-3.955-126.094-11.864-32.391-7.909-57.84-19.937-76.35-36.085-18.51-16.148-31.234-36.085-38.175-59.812-6.941-23.728-10.412-51.41-10.412-83.046V619.875c0-25.046-8.29-46.96-24.871-65.744C61.504 535.347 35.476 525.955 0 525.955z"/></g><g><path fill="#ff6000" d="M360 246c27.062 0 49 21.938 49 49s-21.938 49-49 49-49-21.938-49-49 21.938-49 49-49z"/></g><g><path fill="#001435" d="M188 654v115h229V654z"/></g></g></svg>